<?xml version="1.0" encoding="UTF-8"?>
<svg width="82px" height="82px" viewBox="0 0 82 82" version="1.1" xmlns="http://www.w3.org/2000/svg" xmlns:xlink="http://www.w3.org/1999/xlink">
    <!-- Generator: Sketch 46.2 (44496) - http://www.bohemiancoding.com/sketch -->
    <title>支付成功80px@3x</title>
    <desc>Created with Sketch.</desc>
    <defs></defs>
    <g id="1.5.4国内儿童票等UI" stroke="none" stroke-width="1" fill="none" fill-rule="evenodd">
        <g id="ICON切图" transform="translate(-201.000000, -56.000000)">
            <g id="Group" transform="translate(202.000000, 57.000000)">
                <path d="M80,40.4938272 C80,17.9081481 62.0918519,0 39.5061728,0 C17.9081481,0 0,17.9081481 0,40.4938272 C0,62.0918519 17.9081481,80 39.5061728,80 C62.0918519,80 80,62.0918519 80,40.4938272 Z" id="Fill-" fill="#44DB5E"></path>
                <path d="M20.2021517,42.6924237 C20.0073668,42.4908309 19.9872932,42.1398639 20.142552,41.9286062 L21.8705303,39.5773793 C22.0323992,39.3571274 22.3426416,39.3157877 22.5559349,39.4792648 L33.1684335,47.6131363 C33.3851031,47.7792011 33.7314991,47.7715742 33.9387408,47.5989251 L59.9218532,25.952891 C60.1306125,25.7789775 60.4589069,25.7950814 60.6614326,25.9950951 L62.2524159,27.5663449 C62.4521149,27.7635671 62.457684,28.0772884 62.2571338,28.2746598 L33.916766,56.165815 C33.7196726,56.3597843 33.4059222,56.3576715 33.2072074,56.1520115 L20.2021517,42.6924237 Z" id="Fill-" fill="#FFFFFF"></path>
            </g>
        </g>
    </g>
</svg>